# xmcd
#
# Track frame offsets:
# 150
# 14209
# 29455
# 41167
# 57107
# 67500
# 77185
# 91052
# 101725
# 115837
# 131207
# 142877
#
# Disc length: 2084 seconds
#
#
# Revision: 2
# Processed by: cddbd v1.5.2PL0 Copyright (c) Steve Scherf et al.
# Submitted via: FreeRIP 2.93 
#
DISCID=9f08220c
DTITLE=Craveiro e Cravinho - Franguinho Na Panela
DYEAR=2007
DGENRE=sertanejo
TTITLE0=Cadeira de Balanco
TTITLE1=Franguinho Na Panela
TTITLE2=Quem Ama Chora
TTITLE3=O Caipirao
TTITLE4=Se Voce Sabe
TTITLE5=Ser Feio Nao e Defeito
TTITLE6=O Gato e a Pomba
TTITLE7=O Escravo
TTITLE8=Tudo Mentira
TTITLE9=Esquema Montado
TTITLE10=O Grito do Rio Piracicaba
TTITLE11=O Engraxate
EXTD=
EXTT0=
EXTT1=
EXTT2=
EXTT3=
EXTT4=
EXTT5=
EXTT6=
EXTT7=
EXTT8=
EXTT9=
EXTT10=
EXTT11=
PLAYORDER=
